<svg id="svgQrWrapper" viewBox="0 0 300 300" xmlns="http://www.w3.org/2000/svg" xmlns:xlink="http://www.w3.org/1999/xlink" width="300" height="300" style="width: 100%; height: 100%; background-color: transparent;"><svg fill="#0aae25" xmlns="http://www.w3.org/2000/svg" width="300" height="300" viewBox="0 0 300 300"><path d="M224.88,93.12h19.39a5,5,0,0,1,5,5v18.73H254V98.12a9.68,9.68,0,0,0-9.68-9.68H224.88Z"/><path d="M50.73,116.85V98.12a5,5,0,0,1,5-5H73.8V88.44H55.73a9.68,9.68,0,0,0-9.68,9.68v18.73Z"/><path d="M73.8,291.67H55.73a5,5,0,0,1-5-5V267.94H46.05v18.73a9.68,9.68,0,0,0,9.68,9.68H73.8Z"/><path d="M249.27,267.94v18.73a5,5,0,0,1-5,5H224.88v4.68h19.39a9.68,9.68,0,0,0,9.68-9.68V267.94Z"/><path d="M244.75,3.65H55.45A9.25,9.25,0,0,0,46.2,12.9V54.46a9.25,9.25,0,0,0,9.25,9.26H126a2.32,2.32,0,0,1,1.64.67l20.74,20.74a2.33,2.33,0,0,0,3.28,0l20.75-20.74a2.28,2.28,0,0,1,1.64-.67h70.58a9.25,9.25,0,0,0,9.25-9.26V12.9A9.18,9.18,0,0,0,244.75,3.65Z"/><g transform="translate(54, 96.5)scale(0.64)" fill="none"><svg width="300" height="300"><style>.background-color{ fill: #fff; }.dot-color{ fill: #41ff33; }.corners-square-color-0-0{ fill: #000000; }.corners-dot-color-0-0{ fill: #000000; }.corners-square-color-1-0{ fill: #000000; }.corners-dot-color-1-0{ fill: #000000; }.corners-square-color-0-1{ fill: #000000; }.corners-dot-color-0-1{ fill: #000000; }</style><defs/><g class="dot-color"><circle cx="5.5" cy="77.5" r="4.5" transform="rotate(0,5.5,77.5)"/><circle cx="5.5" cy="104.5" r="4.5" transform="rotate(0,5.5,104.5)"/><circle cx="5.5" cy="113.5" r="4.5" transform="rotate(0,5.5,113.5)"/><circle cx="5.5" cy="122.5" r="4.5" transform="rotate(0,5.5,122.5)"/><circle cx="5.5" cy="131.5" r="4.5" transform="rotate(0,5.5,131.5)"/><circle cx="5.5" cy="158.5" r="4.5" transform="rotate(0,5.5,158.5)"/><circle cx="5.5" cy="176.5" r="4.5" transform="rotate(0,5.5,176.5)"/><circle cx="5.5" cy="194.5" r="4.5" transform="rotate(0,5.5,194.5)"/><circle cx="5.5" cy="203.5" r="4.5" transform="rotate(0,5.5,203.5)"/><circle cx="5.5" cy="221.5" r="4.5" transform="rotate(0,5.5,221.5)"/><circle cx="14.5" cy="86.5" r="4.5" transform="rotate(0,14.5,86.5)"/><circle cx="14.5" cy="113.5" r="4.5" transform="rotate(0,14.5,113.5)"/><circle cx="14.5" cy="131.5" r="4.5" transform="rotate(0,14.5,131.5)"/><circle cx="14.5" cy="149.5" r="4.5" transform="rotate(0,14.5,149.5)"/><circle cx="14.5" cy="158.5" r="4.5" transform="rotate(0,14.5,158.5)"/><circle cx="14.5" cy="176.5" r="4.5" transform="rotate(0,14.5,176.5)"/><circle cx="14.5" cy="194.5" r="4.5" transform="rotate(0,14.5,194.5)"/><circle cx="14.5" cy="221.5" r="4.5" transform="rotate(0,14.5,221.5)"/><circle cx="23.5" cy="77.5" r="4.5" transform="rotate(0,23.5,77.5)"/><circle cx="23.5" cy="86.5" r="4.5" transform="rotate(0,23.5,86.5)"/><circle cx="23.5" cy="104.5" r="4.5" transform="rotate(0,23.5,104.5)"/><circle cx="23.5" cy="113.5" r="4.5" transform="rotate(0,23.5,113.5)"/><circle cx="23.5" cy="140.5" r="4.5" transform="rotate(0,23.5,140.5)"/><circle cx="23.5" cy="185.5" r="4.5" transform="rotate(0,23.5,185.5)"/><circle cx="23.5" cy="194.5" r="4.5" transform="rotate(0,23.5,194.5)"/><circle cx="23.5" cy="203.5" r="4.5" transform="rotate(0,23.5,203.5)"/><circle cx="23.5" cy="212.5" r="4.5" transform="rotate(0,23.5,212.5)"/><circle cx="23.5" cy="221.5" r="4.5" transform="rotate(0,23.5,221.5)"/><circle cx="32.5" cy="86.5" r="4.5" transform="rotate(0,32.5,86.5)"/><circle cx="32.5" cy="113.5" r="4.5" transform="rotate(0,32.5,113.5)"/><circle cx="32.5" cy="122.5" r="4.5" transform="rotate(0,32.5,122.5)"/><circle cx="32.5" cy="131.5" r="4.5" transform="rotate(0,32.5,131.5)"/><circle cx="32.5" cy="185.5" r="4.5" transform="rotate(0,32.5,185.5)"/><circle cx="32.5" cy="194.5" r="4.5" transform="rotate(0,32.5,194.5)"/><circle cx="32.5" cy="212.5" r="4.5" transform="rotate(0,32.5,212.5)"/><circle cx="41.5" cy="77.5" r="4.5" transform="rotate(0,41.5,77.5)"/><circle cx="41.5" cy="131.5" r="4.5" transform="rotate(0,41.5,131.5)"/><circle cx="41.5" cy="149.5" r="4.5" transform="rotate(0,41.5,149.5)"/><circle cx="41.5" cy="176.5" r="4.5" transform="rotate(0,41.5,176.5)"/><circle cx="41.5" cy="194.5" r="4.5" transform="rotate(0,41.5,194.5)"/><circle cx="41.5" cy="221.5" r="4.5" transform="rotate(0,41.5,221.5)"/><circle cx="50.5" cy="113.5" r="4.5" transform="rotate(0,50.5,113.5)"/><circle cx="50.5" cy="122.5" r="4.5" transform="rotate(0,50.5,122.5)"/><circle cx="50.5" cy="131.5" r="4.5" transform="rotate(0,50.5,131.5)"/><circle cx="50.5" cy="140.5" r="4.5" transform="rotate(0,50.5,140.5)"/><circle cx="50.5" cy="149.5" r="4.5" transform="rotate(0,50.5,149.5)"/><circle cx="50.5" cy="158.5" r="4.5" transform="rotate(0,50.5,158.5)"/><circle cx="50.5" cy="176.5" r="4.5" transform="rotate(0,50.5,176.5)"/><circle cx="50.5" cy="203.5" r="4.5" transform="rotate(0,50.5,203.5)"/><circle cx="59.5" cy="77.5" r="4.5" transform="rotate(0,59.5,77.5)"/><circle cx="59.5" cy="95.5" r="4.5" transform="rotate(0,59.5,95.5)"/><circle cx="59.5" cy="113.5" r="4.5" transform="rotate(0,59.5,113.5)"/><circle cx="59.5" cy="131.5" r="4.5" transform="rotate(0,59.5,131.5)"/><circle cx="59.5" cy="149.5" r="4.5" transform="rotate(0,59.5,149.5)"/><circle cx="59.5" cy="167.5" r="4.5" transform="rotate(0,59.5,167.5)"/><circle cx="59.5" cy="185.5" r="4.5" transform="rotate(0,59.5,185.5)"/><circle cx="59.5" cy="203.5" r="4.5" transform="rotate(0,59.5,203.5)"/><circle cx="59.5" cy="221.5" r="4.5" transform="rotate(0,59.5,221.5)"/><circle cx="68.5" cy="77.5" r="4.5" transform="rotate(0,68.5,77.5)"/><circle cx="68.5" cy="86.5" r="4.5" transform="rotate(0,68.5,86.5)"/><circle cx="68.5" cy="95.5" r="4.5" transform="rotate(0,68.5,95.5)"/><circle cx="68.5" cy="104.5" r="4.5" transform="rotate(0,68.5,104.5)"/><circle cx="68.5" cy="131.5" r="4.5" transform="rotate(0,68.5,131.5)"/><circle cx="68.5" cy="158.5" r="4.5" transform="rotate(0,68.5,158.5)"/><circle cx="68.5" cy="167.5" r="4.5" transform="rotate(0,68.5,167.5)"/><circle cx="68.5" cy="176.5" r="4.5" transform="rotate(0,68.5,176.5)"/><circle cx="68.5" cy="203.5" r="4.5" transform="rotate(0,68.5,203.5)"/><circle cx="68.5" cy="221.5" r="4.5" transform="rotate(0,68.5,221.5)"/><circle cx="77.5" cy="50.5" r="4.5" transform="rotate(0,77.5,50.5)"/><circle cx="77.5" cy="59.5" r="4.5" transform="rotate(0,77.5,59.5)"/><circle cx="77.5" cy="104.5" r="4.5" transform="rotate(0,77.5,104.5)"/><circle cx="77.5" cy="113.5" r="4.5" transform="rotate(0,77.5,113.5)"/><circle cx="77.5" cy="131.5" r="4.5" transform="rotate(0,77.5,131.5)"/><circle cx="77.5" cy="158.5" r="4.5" transform="rotate(0,77.5,158.5)"/><circle cx="77.5" cy="203.5" r="4.5" transform="rotate(0,77.5,203.5)"/><circle cx="77.5" cy="239.5" r="4.5" transform="rotate(0,77.5,239.5)"/><circle cx="77.5" cy="257.5" r="4.5" transform="rotate(0,77.5,257.5)"/><circle cx="77.5" cy="275.5" r="4.5" transform="rotate(0,77.5,275.5)"/><circle cx="77.5" cy="293.5" r="4.5" transform="rotate(0,77.5,293.5)"/><circle cx="86.5" cy="41.5" r="4.5" transform="rotate(0,86.5,41.5)"/><circle cx="86.5" cy="50.5" r="4.5" transform="rotate(0,86.5,50.5)"/><circle cx="86.5" cy="77.5" r="4.5" transform="rotate(0,86.5,77.5)"/><circle cx="86.5" cy="86.5" r="4.5" transform="rotate(0,86.5,86.5)"/><circle cx="86.5" cy="95.5" r="4.5" transform="rotate(0,86.5,95.5)"/><circle cx="86.5" cy="104.5" r="4.5" transform="rotate(0,86.5,104.5)"/><circle cx="86.5" cy="122.5" r="4.5" transform="rotate(0,86.5,122.5)"/><circle cx="86.5" cy="131.5" r="4.5" transform="rotate(0,86.5,131.5)"/><circle cx="86.5" cy="140.5" r="4.5" transform="rotate(0,86.5,140.5)"/><circle cx="86.5" cy="149.5" r="4.5" transform="rotate(0,86.5,149.5)"/><circle cx="86.5" cy="158.5" r="4.5" transform="rotate(0,86.5,158.5)"/><circle cx="86.5" cy="167.5" r="4.5" transform="rotate(0,86.5,167.5)"/><circle cx="86.5" cy="185.5" r="4.5" transform="rotate(0,86.5,185.5)"/><circle cx="86.5" cy="194.5" r="4.5" transform="rotate(0,86.5,194.5)"/><circle cx="86.5" cy="212.5" r="4.5" transform="rotate(0,86.5,212.5)"/><circle cx="86.5" cy="221.5" r="4.5" transform="rotate(0,86.5,221.5)"/><circle cx="86.5" cy="230.5" r="4.5" transform="rotate(0,86.5,230.5)"/><circle cx="86.5" cy="248.5" r="4.5" transform="rotate(0,86.5,248.5)"/><circle cx="86.5" cy="257.5" r="4.5" transform="rotate(0,86.5,257.5)"/><circle cx="86.5" cy="266.5" r="4.5" transform="rotate(0,86.5,266.5)"/><circle cx="95.5" cy="14.5" r="4.5" transform="rotate(0,95.5,14.5)"/><circle cx="95.5" cy="32.5" r="4.5" transform="rotate(0,95.5,32.5)"/><circle cx="95.5" cy="59.5" r="4.5" transform="rotate(0,95.5,59.5)"/><circle cx="95.5" cy="68.5" r="4.5" transform="rotate(0,95.5,68.5)"/><circle cx="95.5" cy="77.5" r="4.5" transform="rotate(0,95.5,77.5)"/><circle cx="95.5" cy="104.5" r="4.5" transform="rotate(0,95.5,104.5)"/><circle cx="95.5" cy="113.5" r="4.5" transform="rotate(0,95.5,113.5)"/><circle cx="95.5" cy="131.5" r="4.5" transform="rotate(0,95.5,131.5)"/><circle cx="95.5" cy="158.5" r="4.5" transform="rotate(0,95.5,158.5)"/><circle cx="95.5" cy="167.5" r="4.5" transform="rotate(0,95.5,167.5)"/><circle cx="95.5" cy="203.5" r="4.5" transform="rotate(0,95.5,203.5)"/><circle cx="95.5" cy="248.5" r="4.5" transform="rotate(0,95.5,248.5)"/><circle cx="95.5" cy="266.5" r="4.5" transform="rotate(0,95.5,266.5)"/><circle cx="95.5" cy="284.5" r="4.5" transform="rotate(0,95.5,284.5)"/><circle cx="104.5" cy="5.5" r="4.5" transform="rotate(0,104.5,5.5)"/><circle cx="104.5" cy="14.5" r="4.5" transform="rotate(0,104.5,14.5)"/><circle cx="104.5" cy="41.5" r="4.5" transform="rotate(0,104.5,41.5)"/><circle cx="104.5" cy="50.5" r="4.5" transform="rotate(0,104.5,50.5)"/><circle cx="104.5" cy="68.5" r="4.5" transform="rotate(0,104.5,68.5)"/><circle cx="104.5" cy="86.5" r="4.5" transform="rotate(0,104.5,86.5)"/><circle cx="104.5" cy="122.5" r="4.5" transform="rotate(0,104.5,122.5)"/><circle cx="104.5" cy="131.5" r="4.5" transform="rotate(0,104.5,131.5)"/><circle cx="104.5" cy="140.5" r="4.5" transform="rotate(0,104.5,140.5)"/><circle cx="104.5" cy="176.5" r="4.5" transform="rotate(0,104.5,176.5)"/><circle cx="104.5" cy="185.5" r="4.5" transform="rotate(0,104.5,185.5)"/><circle cx="104.5" cy="194.5" r="4.5" transform="rotate(0,104.5,194.5)"/><circle cx="104.5" cy="212.5" r="4.5" transform="rotate(0,104.5,212.5)"/><circle cx="104.5" cy="221.5" r="4.5" transform="rotate(0,104.5,221.5)"/><circle cx="104.5" cy="230.5" r="4.5" transform="rotate(0,104.5,230.5)"/><circle cx="104.5" cy="248.5" r="4.5" transform="rotate(0,104.5,248.5)"/><circle cx="104.5" cy="266.5" r="4.5" transform="rotate(0,104.5,266.5)"/><circle cx="104.5" cy="275.5" r="4.5" transform="rotate(0,104.5,275.5)"/><circle cx="104.5" cy="284.5" r="4.5" transform="rotate(0,104.5,284.5)"/><circle cx="113.5" cy="5.5" r="4.5" transform="rotate(0,113.5,5.5)"/><circle cx="113.5" cy="23.5" r="4.5" transform="rotate(0,113.5,23.5)"/><circle cx="113.5" cy="32.5" r="4.5" transform="rotate(0,113.5,32.5)"/><circle cx="113.5" cy="41.5" r="4.5" transform="rotate(0,113.5,41.5)"/><circle cx="113.5" cy="50.5" r="4.5" transform="rotate(0,113.5,50.5)"/><circle cx="113.5" cy="59.5" r="4.5" transform="rotate(0,113.5,59.5)"/><circle cx="113.5" cy="86.5" r="4.5" transform="rotate(0,113.5,86.5)"/><circle cx="113.5" cy="194.5" r="4.5" transform="rotate(0,113.5,194.5)"/><circle cx="113.5" cy="212.5" r="4.5" transform="rotate(0,113.5,212.5)"/><circle cx="113.5" cy="221.5" r="4.5" transform="rotate(0,113.5,221.5)"/><circle cx="113.5" cy="239.5" r="4.5" transform="rotate(0,113.5,239.5)"/><circle cx="113.5" cy="248.5" r="4.5" transform="rotate(0,113.5,248.5)"/><circle cx="113.5" cy="257.5" r="4.5" transform="rotate(0,113.5,257.5)"/><circle cx="122.5" cy="5.5" r="4.5" transform="rotate(0,122.5,5.5)"/><circle cx="122.5" cy="23.5" r="4.5" transform="rotate(0,122.5,23.5)"/><circle cx="122.5" cy="32.5" r="4.5" transform="rotate(0,122.5,32.5)"/><circle cx="122.5" cy="68.5" r="4.5" transform="rotate(0,122.5,68.5)"/><circle cx="122.5" cy="194.5" r="4.5" transform="rotate(0,122.5,194.5)"/><circle cx="122.5" cy="212.5" r="4.5" transform="rotate(0,122.5,212.5)"/><circle cx="122.5" cy="230.5" r="4.5" transform="rotate(0,122.5,230.5)"/><circle cx="122.5" cy="239.5" r="4.5" transform="rotate(0,122.5,239.5)"/><circle cx="122.5" cy="248.5" r="4.5" transform="rotate(0,122.5,248.5)"/><circle cx="122.5" cy="257.5" r="4.5" transform="rotate(0,122.5,257.5)"/><circle cx="122.5" cy="266.5" r="4.5" transform="rotate(0,122.5,266.5)"/><circle cx="122.5" cy="293.5" r="4.5" transform="rotate(0,122.5,293.5)"/><circle cx="131.5" cy="32.5" r="4.5" transform="rotate(0,131.5,32.5)"/><circle cx="131.5" cy="50.5" r="4.5" transform="rotate(0,131.5,50.5)"/><circle cx="131.5" cy="59.5" r="4.5" transform="rotate(0,131.5,59.5)"/><circle cx="131.5" cy="86.5" r="4.5" transform="rotate(0,131.5,86.5)"/><circle cx="131.5" cy="203.5" r="4.5" transform="rotate(0,131.5,203.5)"/><circle cx="131.5" cy="221.5" r="4.5" transform="rotate(0,131.5,221.5)"/><circle cx="131.5" cy="239.5" r="4.5" transform="rotate(0,131.5,239.5)"/><circle cx="131.5" cy="248.5" r="4.5" transform="rotate(0,131.5,248.5)"/><circle cx="131.5" cy="257.5" r="4.5" transform="rotate(0,131.5,257.5)"/><circle cx="131.5" cy="284.5" r="4.5" transform="rotate(0,131.5,284.5)"/><circle cx="140.5" cy="41.5" r="4.5" transform="rotate(0,140.5,41.5)"/><circle cx="140.5" cy="68.5" r="4.5" transform="rotate(0,140.5,68.5)"/><circle cx="140.5" cy="77.5" r="4.5" transform="rotate(0,140.5,77.5)"/><circle cx="140.5" cy="212.5" r="4.5" transform="rotate(0,140.5,212.5)"/><circle cx="140.5" cy="248.5" r="4.5" transform="rotate(0,140.5,248.5)"/><circle cx="140.5" cy="266.5" r="4.5" transform="rotate(0,140.5,266.5)"/><circle cx="149.5" cy="23.5" r="4.5" transform="rotate(0,149.5,23.5)"/><circle cx="149.5" cy="32.5" r="4.5" transform="rotate(0,149.5,32.5)"/><circle cx="149.5" cy="59.5" r="4.5" transform="rotate(0,149.5,59.5)"/><circle cx="149.5" cy="68.5" r="4.5" transform="rotate(0,149.5,68.5)"/><circle cx="149.5" cy="86.5" r="4.5" transform="rotate(0,149.5,86.5)"/><circle cx="149.5" cy="104.5" r="4.5" transform="rotate(0,149.5,104.5)"/><circle cx="149.5" cy="212.5" r="4.5" transform="rotate(0,149.5,212.5)"/><circle cx="149.5" cy="230.5" r="4.5" transform="rotate(0,149.5,230.5)"/><circle cx="149.5" cy="248.5" r="4.5" transform="rotate(0,149.5,248.5)"/><circle cx="149.5" cy="257.5" r="4.5" transform="rotate(0,149.5,257.5)"/><circle cx="149.5" cy="275.5" r="4.5" transform="rotate(0,149.5,275.5)"/><circle cx="149.5" cy="293.5" r="4.5" transform="rotate(0,149.5,293.5)"/><circle cx="158.5" cy="5.5" r="4.5" transform="rotate(0,158.5,5.5)"/><circle cx="158.5" cy="14.5" r="4.5" transform="rotate(0,158.5,14.5)"/><circle cx="158.5" cy="23.5" r="4.5" transform="rotate(0,158.5,23.5)"/><circle cx="158.5" cy="32.5" r="4.5" transform="rotate(0,158.5,32.5)"/><circle cx="158.5" cy="50.5" r="4.5" transform="rotate(0,158.5,50.5)"/><circle cx="158.5" cy="95.5" r="4.5" transform="rotate(0,158.5,95.5)"/><circle cx="158.5" cy="194.5" r="4.5" transform="rotate(0,158.5,194.5)"/><circle cx="158.5" cy="212.5" r="4.5" transform="rotate(0,158.5,212.5)"/><circle cx="158.5" cy="221.5" r="4.5" transform="rotate(0,158.5,221.5)"/><circle cx="158.5" cy="248.5" r="4.5" transform="rotate(0,158.5,248.5)"/><circle cx="167.5" cy="23.5" r="4.5" transform="rotate(0,167.5,23.5)"/><circle cx="167.5" cy="32.5" r="4.5" transform="rotate(0,167.5,32.5)"/><circle cx="167.5" cy="59.5" r="4.5" transform="rotate(0,167.5,59.5)"/><circle cx="167.5" cy="68.5" r="4.5" transform="rotate(0,167.5,68.5)"/><circle cx="167.5" cy="77.5" r="4.5" transform="rotate(0,167.5,77.5)"/><circle cx="167.5" cy="86.5" r="4.5" transform="rotate(0,167.5,86.5)"/><circle cx="167.5" cy="95.5" r="4.5" transform="rotate(0,167.5,95.5)"/><circle cx="167.5" cy="212.5" r="4.5" transform="rotate(0,167.5,212.5)"/><circle cx="167.5" cy="230.5" r="4.5" transform="rotate(0,167.5,230.5)"/><circle cx="167.5" cy="239.5" r="4.5" transform="rotate(0,167.5,239.5)"/><circle cx="167.5" cy="257.5" r="4.5" transform="rotate(0,167.5,257.5)"/><circle cx="167.5" cy="266.5" r="4.5" transform="rotate(0,167.5,266.5)"/><circle cx="167.5" cy="275.5" r="4.5" transform="rotate(0,167.5,275.5)"/><circle cx="167.5" cy="284.5" r="4.5" transform="rotate(0,167.5,284.5)"/><circle cx="167.5" cy="293.5" r="4.5" transform="rotate(0,167.5,293.5)"/><circle cx="176.5" cy="5.5" r="4.5" transform="rotate(0,176.5,5.5)"/><circle cx="176.5" cy="32.5" r="4.5" transform="rotate(0,176.5,32.5)"/><circle cx="176.5" cy="41.5" r="4.5" transform="rotate(0,176.5,41.5)"/><circle cx="176.5" cy="68.5" r="4.5" transform="rotate(0,176.5,68.5)"/><circle cx="176.5" cy="86.5" r="4.5" transform="rotate(0,176.5,86.5)"/><circle cx="176.5" cy="203.5" r="4.5" transform="rotate(0,176.5,203.5)"/><circle cx="176.5" cy="212.5" r="4.5" transform="rotate(0,176.5,212.5)"/><circle cx="176.5" cy="221.5" r="4.5" transform="rotate(0,176.5,221.5)"/><circle cx="176.5" cy="230.5" r="4.5" transform="rotate(0,176.5,230.5)"/><circle cx="176.5" cy="248.5" r="4.5" transform="rotate(0,176.5,248.5)"/><circle cx="176.5" cy="257.5" r="4.5" transform="rotate(0,176.5,257.5)"/><circle cx="176.5" cy="266.5" r="4.5" transform="rotate(0,176.5,266.5)"/><circle cx="176.5" cy="275.5" r="4.5" transform="rotate(0,176.5,275.5)"/><circle cx="176.5" cy="284.5" r="4.5" transform="rotate(0,176.5,284.5)"/><circle cx="176.5" cy="293.5" r="4.5" transform="rotate(0,176.5,293.5)"/><circle cx="185.5" cy="14.5" r="4.5" transform="rotate(0,185.5,14.5)"/><circle cx="185.5" cy="59.5" r="4.5" transform="rotate(0,185.5,59.5)"/><circle cx="185.5" cy="68.5" r="4.5" transform="rotate(0,185.5,68.5)"/><circle cx="185.5" cy="104.5" r="4.5" transform="rotate(0,185.5,104.5)"/><circle cx="185.5" cy="203.5" r="4.5" transform="rotate(0,185.5,203.5)"/><circle cx="185.5" cy="221.5" r="4.5" transform="rotate(0,185.5,221.5)"/><circle cx="185.5" cy="257.5" r="4.5" transform="rotate(0,185.5,257.5)"/><circle cx="185.5" cy="266.5" r="4.5" transform="rotate(0,185.5,266.5)"/><circle cx="194.5" cy="5.5" r="4.5" transform="rotate(0,194.5,5.5)"/><circle cx="194.5" cy="23.5" r="4.5" transform="rotate(0,194.5,23.5)"/><circle cx="194.5" cy="32.5" r="4.5" transform="rotate(0,194.5,32.5)"/><circle cx="194.5" cy="41.5" r="4.5" transform="rotate(0,194.5,41.5)"/><circle cx="194.5" cy="77.5" r="4.5" transform="rotate(0,194.5,77.5)"/><circle cx="194.5" cy="86.5" r="4.5" transform="rotate(0,194.5,86.5)"/><circle cx="194.5" cy="95.5" r="4.5" transform="rotate(0,194.5,95.5)"/><circle cx="194.5" cy="122.5" r="4.5" transform="rotate(0,194.5,122.5)"/><circle cx="194.5" cy="140.5" r="4.5" transform="rotate(0,194.5,140.5)"/><circle cx="194.5" cy="176.5" r="4.5" transform="rotate(0,194.5,176.5)"/><circle cx="194.5" cy="194.5" r="4.5" transform="rotate(0,194.5,194.5)"/><circle cx="194.5" cy="203.5" r="4.5" transform="rotate(0,194.5,203.5)"/><circle cx="194.5" cy="230.5" r="4.5" transform="rotate(0,194.5,230.5)"/><circle cx="194.5" cy="239.5" r="4.5" transform="rotate(0,194.5,239.5)"/><circle cx="194.5" cy="248.5" r="4.5" transform="rotate(0,194.5,248.5)"/><circle cx="194.5" cy="257.5" r="4.5" transform="rotate(0,194.5,257.5)"/><circle cx="194.5" cy="266.5" r="4.5" transform="rotate(0,194.5,266.5)"/><circle cx="194.5" cy="275.5" r="4.5" transform="rotate(0,194.5,275.5)"/><circle cx="203.5" cy="5.5" r="4.5" transform="rotate(0,203.5,5.5)"/><circle cx="203.5" cy="41.5" r="4.5" transform="rotate(0,203.5,41.5)"/><circle cx="203.5" cy="59.5" r="4.5" transform="rotate(0,203.5,59.5)"/><circle cx="203.5" cy="77.5" r="4.5" transform="rotate(0,203.5,77.5)"/><circle cx="203.5" cy="95.5" r="4.5" transform="rotate(0,203.5,95.5)"/><circle cx="203.5" cy="104.5" r="4.5" transform="rotate(0,203.5,104.5)"/><circle cx="203.5" cy="113.5" r="4.5" transform="rotate(0,203.5,113.5)"/><circle cx="203.5" cy="140.5" r="4.5" transform="rotate(0,203.5,140.5)"/><circle cx="203.5" cy="149.5" r="4.5" transform="rotate(0,203.5,149.5)"/><circle cx="203.5" cy="194.5" r="4.5" transform="rotate(0,203.5,194.5)"/><circle cx="203.5" cy="212.5" r="4.5" transform="rotate(0,203.5,212.5)"/><circle cx="203.5" cy="221.5" r="4.5" transform="rotate(0,203.5,221.5)"/><circle cx="203.5" cy="266.5" r="4.5" transform="rotate(0,203.5,266.5)"/><circle cx="203.5" cy="275.5" r="4.5" transform="rotate(0,203.5,275.5)"/><circle cx="212.5" cy="5.5" r="4.5" transform="rotate(0,212.5,5.5)"/><circle cx="212.5" cy="32.5" r="4.5" transform="rotate(0,212.5,32.5)"/><circle cx="212.5" cy="41.5" r="4.5" transform="rotate(0,212.5,41.5)"/><circle cx="212.5" cy="68.5" r="4.5" transform="rotate(0,212.5,68.5)"/><circle cx="212.5" cy="77.5" r="4.5" transform="rotate(0,212.5,77.5)"/><circle cx="212.5" cy="95.5" r="4.5" transform="rotate(0,212.5,95.5)"/><circle cx="212.5" cy="140.5" r="4.5" transform="rotate(0,212.5,140.5)"/><circle cx="212.5" cy="149.5" r="4.5" transform="rotate(0,212.5,149.5)"/><circle cx="212.5" cy="158.5" r="4.5" transform="rotate(0,212.5,158.5)"/><circle cx="212.5" cy="167.5" r="4.5" transform="rotate(0,212.5,167.5)"/><circle cx="212.5" cy="203.5" r="4.5" transform="rotate(0,212.5,203.5)"/><circle cx="212.5" cy="212.5" r="4.5" transform="rotate(0,212.5,212.5)"/><circle cx="212.5" cy="248.5" r="4.5" transform="rotate(0,212.5,248.5)"/><circle cx="212.5" cy="257.5" r="4.5" transform="rotate(0,212.5,257.5)"/><circle cx="212.5" cy="275.5" r="4.5" transform="rotate(0,212.5,275.5)"/><circle cx="212.5" cy="284.5" r="4.5" transform="rotate(0,212.5,284.5)"/><circle cx="221.5" cy="5.5" r="4.5" transform="rotate(0,221.5,5.5)"/><circle cx="221.5" cy="14.5" r="4.5" transform="rotate(0,221.5,14.5)"/><circle cx="221.5" cy="59.5" r="4.5" transform="rotate(0,221.5,59.5)"/><circle cx="221.5" cy="86.5" r="4.5" transform="rotate(0,221.5,86.5)"/><circle cx="221.5" cy="95.5" r="4.5" transform="rotate(0,221.5,95.5)"/><circle cx="221.5" cy="104.5" r="4.5" transform="rotate(0,221.5,104.5)"/><circle cx="221.5" cy="140.5" r="4.5" transform="rotate(0,221.5,140.5)"/><circle cx="221.5" cy="149.5" r="4.5" transform="rotate(0,221.5,149.5)"/><circle cx="221.5" cy="158.5" r="4.5" transform="rotate(0,221.5,158.5)"/><circle cx="221.5" cy="167.5" r="4.5" transform="rotate(0,221.5,167.5)"/><circle cx="221.5" cy="194.5" r="4.5" transform="rotate(0,221.5,194.5)"/><circle cx="221.5" cy="221.5" r="4.5" transform="rotate(0,221.5,221.5)"/><circle cx="221.5" cy="230.5" r="4.5" transform="rotate(0,221.5,230.5)"/><circle cx="221.5" cy="239.5" r="4.5" transform="rotate(0,221.5,239.5)"/><circle cx="221.5" cy="248.5" r="4.5" transform="rotate(0,221.5,248.5)"/><circle cx="221.5" cy="257.5" r="4.5" transform="rotate(0,221.5,257.5)"/><circle cx="221.5" cy="266.5" r="4.5" transform="rotate(0,221.5,266.5)"/><circle cx="230.5" cy="77.5" r="4.5" transform="rotate(0,230.5,77.5)"/><circle cx="230.5" cy="86.5" r="4.5" transform="rotate(0,230.5,86.5)"/><circle cx="230.5" cy="95.5" r="4.5" transform="rotate(0,230.5,95.5)"/><circle cx="230.5" cy="104.5" r="4.5" transform="rotate(0,230.5,104.5)"/><circle cx="230.5" cy="122.5" r="4.5" transform="rotate(0,230.5,122.5)"/><circle cx="230.5" cy="131.5" r="4.5" transform="rotate(0,230.5,131.5)"/><circle cx="230.5" cy="140.5" r="4.5" transform="rotate(0,230.5,140.5)"/><circle cx="230.5" cy="176.5" r="4.5" transform="rotate(0,230.5,176.5)"/><circle cx="230.5" cy="185.5" r="4.5" transform="rotate(0,230.5,185.5)"/><circle cx="230.5" cy="203.5" r="4.5" transform="rotate(0,230.5,203.5)"/><circle cx="230.5" cy="212.5" r="4.5" transform="rotate(0,230.5,212.5)"/><circle cx="230.5" cy="221.5" r="4.5" transform="rotate(0,230.5,221.5)"/><circle cx="230.5" cy="257.5" r="4.5" transform="rotate(0,230.5,257.5)"/><circle cx="230.5" cy="266.5" r="4.5" transform="rotate(0,230.5,266.5)"/><circle cx="230.5" cy="275.5" r="4.5" transform="rotate(0,230.5,275.5)"/><circle cx="230.5" cy="293.5" r="4.5" transform="rotate(0,230.5,293.5)"/><circle cx="239.5" cy="113.5" r="4.5" transform="rotate(0,239.5,113.5)"/><circle cx="239.5" cy="122.5" r="4.5" transform="rotate(0,239.5,122.5)"/><circle cx="239.5" cy="140.5" r="4.5" transform="rotate(0,239.5,140.5)"/><circle cx="239.5" cy="149.5" r="4.5" transform="rotate(0,239.5,149.5)"/><circle cx="239.5" cy="167.5" r="4.5" transform="rotate(0,239.5,167.5)"/><circle cx="239.5" cy="185.5" r="4.5" transform="rotate(0,239.5,185.5)"/><circle cx="239.5" cy="194.5" r="4.5" transform="rotate(0,239.5,194.5)"/><circle cx="239.5" cy="221.5" r="4.5" transform="rotate(0,239.5,221.5)"/><circle cx="239.5" cy="239.5" r="4.5" transform="rotate(0,239.5,239.5)"/><circle cx="239.5" cy="257.5" r="4.5" transform="rotate(0,239.5,257.5)"/><circle cx="239.5" cy="284.5" r="4.5" transform="rotate(0,239.5,284.5)"/><circle cx="248.5" cy="77.5" r="4.5" transform="rotate(0,248.5,77.5)"/><circle cx="248.5" cy="86.5" r="4.5" transform="rotate(0,248.5,86.5)"/><circle cx="248.5" cy="104.5" r="4.5" transform="rotate(0,248.5,104.5)"/><circle cx="248.5" cy="158.5" r="4.5" transform="rotate(0,248.5,158.5)"/><circle cx="248.5" cy="185.5" r="4.5" transform="rotate(0,248.5,185.5)"/><circle cx="248.5" cy="212.5" r="4.5" transform="rotate(0,248.5,212.5)"/><circle cx="248.5" cy="221.5" r="4.5" transform="rotate(0,248.5,221.5)"/><circle cx="248.5" cy="257.5" r="4.5" transform="rotate(0,248.5,257.5)"/><circle cx="248.5" cy="266.5" r="4.5" transform="rotate(0,248.5,266.5)"/><circle cx="248.5" cy="275.5" r="4.5" transform="rotate(0,248.5,275.5)"/><circle cx="248.5" cy="284.5" r="4.5" transform="rotate(0,248.5,284.5)"/><circle cx="257.5" cy="86.5" r="4.5" transform="rotate(0,257.5,86.5)"/><circle cx="257.5" cy="104.5" r="4.5" transform="rotate(0,257.5,104.5)"/><circle cx="257.5" cy="122.5" r="4.5" transform="rotate(0,257.5,122.5)"/><circle cx="257.5" cy="140.5" r="4.5" transform="rotate(0,257.5,140.5)"/><circle cx="257.5" cy="167.5" r="4.5" transform="rotate(0,257.5,167.5)"/><circle cx="257.5" cy="176.5" r="4.5" transform="rotate(0,257.5,176.5)"/><circle cx="257.5" cy="194.5" r="4.5" transform="rotate(0,257.5,194.5)"/><circle cx="257.5" cy="221.5" r="4.5" transform="rotate(0,257.5,221.5)"/><circle cx="257.5" cy="230.5" r="4.5" transform="rotate(0,257.5,230.5)"/><circle cx="257.5" cy="239.5" r="4.5" transform="rotate(0,257.5,239.5)"/><circle cx="257.5" cy="248.5" r="4.5" transform="rotate(0,257.5,248.5)"/><circle cx="257.5" cy="257.5" r="4.5" transform="rotate(0,257.5,257.5)"/><circle cx="257.5" cy="284.5" r="4.5" transform="rotate(0,257.5,284.5)"/><circle cx="257.5" cy="293.5" r="4.5" transform="rotate(0,257.5,293.5)"/><circle cx="266.5" cy="95.5" r="4.5" transform="rotate(0,266.5,95.5)"/><circle cx="266.5" cy="104.5" r="4.5" transform="rotate(0,266.5,104.5)"/><circle cx="266.5" cy="149.5" r="4.5" transform="rotate(0,266.5,149.5)"/><circle cx="266.5" cy="158.5" r="4.5" transform="rotate(0,266.5,158.5)"/><circle cx="266.5" cy="167.5" r="4.5" transform="rotate(0,266.5,167.5)"/><circle cx="266.5" cy="176.5" r="4.5" transform="rotate(0,266.5,176.5)"/><circle cx="266.5" cy="194.5" r="4.5" transform="rotate(0,266.5,194.5)"/><circle cx="266.5" cy="203.5" r="4.5" transform="rotate(0,266.5,203.5)"/><circle cx="266.5" cy="212.5" r="4.5" transform="rotate(0,266.5,212.5)"/><circle cx="266.5" cy="221.5" r="4.5" transform="rotate(0,266.5,221.5)"/><circle cx="266.5" cy="230.5" r="4.5" transform="rotate(0,266.5,230.5)"/><circle cx="266.5" cy="248.5" r="4.5" transform="rotate(0,266.5,248.5)"/><circle cx="266.5" cy="257.5" r="4.5" transform="rotate(0,266.5,257.5)"/><circle cx="266.5" cy="275.5" r="4.5" transform="rotate(0,266.5,275.5)"/><circle cx="266.5" cy="284.5" r="4.5" transform="rotate(0,266.5,284.5)"/><circle cx="275.5" cy="95.5" r="4.5" transform="rotate(0,275.5,95.5)"/><circle cx="275.5" cy="104.5" r="4.5" transform="rotate(0,275.5,104.5)"/><circle cx="275.5" cy="113.5" r="4.5" transform="rotate(0,275.5,113.5)"/><circle cx="275.5" cy="122.5" r="4.5" transform="rotate(0,275.5,122.5)"/><circle cx="275.5" cy="131.5" r="4.5" transform="rotate(0,275.5,131.5)"/><circle cx="275.5" cy="149.5" r="4.5" transform="rotate(0,275.5,149.5)"/><circle cx="275.5" cy="158.5" r="4.5" transform="rotate(0,275.5,158.5)"/><circle cx="275.5" cy="167.5" r="4.5" transform="rotate(0,275.5,167.5)"/><circle cx="275.5" cy="257.5" r="4.5" transform="rotate(0,275.5,257.5)"/><circle cx="275.5" cy="275.5" r="4.5" transform="rotate(0,275.5,275.5)"/><circle cx="275.5" cy="284.5" r="4.5" transform="rotate(0,275.5,284.5)"/><circle cx="275.5" cy="293.5" r="4.5" transform="rotate(0,275.5,293.5)"/><circle cx="284.5" cy="95.5" r="4.5" transform="rotate(0,284.5,95.5)"/><circle cx="284.5" cy="122.5" r="4.5" transform="rotate(0,284.5,122.5)"/><circle cx="284.5" cy="131.5" r="4.5" transform="rotate(0,284.5,131.5)"/><circle cx="284.5" cy="140.5" r="4.5" transform="rotate(0,284.5,140.5)"/><circle cx="284.5" cy="149.5" r="4.5" transform="rotate(0,284.5,149.5)"/><circle cx="284.5" cy="158.5" r="4.5" transform="rotate(0,284.5,158.5)"/><circle cx="284.5" cy="176.5" r="4.5" transform="rotate(0,284.5,176.5)"/><circle cx="284.5" cy="194.5" r="4.5" transform="rotate(0,284.5,194.5)"/><circle cx="284.5" cy="275.5" r="4.5" transform="rotate(0,284.5,275.5)"/><circle cx="293.5" cy="86.5" r="4.5" transform="rotate(0,293.5,86.5)"/><circle cx="293.5" cy="95.5" r="4.5" transform="rotate(0,293.5,95.5)"/><circle cx="293.5" cy="113.5" r="4.5" transform="rotate(0,293.5,113.5)"/><circle cx="293.5" cy="122.5" r="4.5" transform="rotate(0,293.5,122.5)"/><circle cx="293.5" cy="194.5" r="4.5" transform="rotate(0,293.5,194.5)"/><circle cx="293.5" cy="203.5" r="4.5" transform="rotate(0,293.5,203.5)"/><circle cx="293.5" cy="221.5" r="4.5" transform="rotate(0,293.5,221.5)"/><circle cx="293.5" cy="239.5" r="4.5" transform="rotate(0,293.5,239.5)"/><circle cx="293.5" cy="266.5" r="4.5" transform="rotate(0,293.5,266.5)"/><circle cx="293.5" cy="275.5" r="4.5" transform="rotate(0,293.5,275.5)"/><circle cx="293.5" cy="284.5" r="4.5" transform="rotate(0,293.5,284.5)"/></g><g class="corners-square-color-0-0"><path clip-rule="evenodd" d="M 1 10v 45a 9 9, 0, 0, 0, 9 9h 45a 9 9, 0, 0, 0, 9 -9v -45a 9 9, 0, 0, 0, -9 -9h -45a 9 9, 0, 0, 0, -9 9zM 14.5 10h 36a 4.5 4.5, 0, 0, 1, 4.5 4.5v 36a 4.5 4.5, 0, 0, 1, -4.5 4.5h -36a 4.5 4.5, 0, 0, 1, -4.5 -4.5v -36a 4.5 4.5, 0, 0, 1, 4.5 -4.5z" transform="rotate(0,32.5,32.5)"/></g><g class="corners-dot-color-0-0"><circle cx="23.5" cy="23.5" r="4.5" transform="rotate(0,23.5,23.5)"/><circle cx="23.5" cy="32.5" r="4.5" transform="rotate(0,23.5,32.5)"/><circle cx="23.5" cy="41.5" r="4.5" transform="rotate(0,23.5,41.5)"/><circle cx="32.5" cy="23.5" r="4.5" transform="rotate(0,32.5,23.5)"/><circle cx="32.5" cy="32.5" r="4.5" transform="rotate(0,32.5,32.5)"/><circle cx="32.5" cy="41.5" r="4.5" transform="rotate(0,32.5,41.5)"/><circle cx="41.5" cy="23.5" r="4.5" transform="rotate(0,41.5,23.5)"/><circle cx="41.5" cy="32.5" r="4.5" transform="rotate(0,41.5,32.5)"/><circle cx="41.5" cy="41.5" r="4.5" transform="rotate(0,41.5,41.5)"/></g><g class="corners-square-color-1-0"><path clip-rule="evenodd" d="M 235 10v 45a 9 9, 0, 0, 0, 9 9h 45a 9 9, 0, 0, 0, 9 -9v -45a 9 9, 0, 0, 0, -9 -9h -45a 9 9, 0, 0, 0, -9 9zM 248.5 10h 36a 4.5 4.5, 0, 0, 1, 4.5 4.5v 36a 4.5 4.5, 0, 0, 1, -4.5 4.5h -36a 4.5 4.5, 0, 0, 1, -4.5 -4.5v -36a 4.5 4.5, 0, 0, 1, 4.5 -4.5z" transform="rotate(90,266.5,32.5)"/></g><g class="corners-dot-color-1-0"><circle cx="257.5" cy="23.5" r="4.5" transform="rotate(0,257.5,23.5)"/><circle cx="257.5" cy="32.5" r="4.5" transform="rotate(0,257.5,32.5)"/><circle cx="257.5" cy="41.5" r="4.5" transform="rotate(0,257.5,41.5)"/><circle cx="266.5" cy="23.5" r="4.5" transform="rotate(0,266.5,23.5)"/><circle cx="266.5" cy="32.5" r="4.5" transform="rotate(0,266.5,32.5)"/><circle cx="266.5" cy="41.5" r="4.5" transform="rotate(0,266.5,41.5)"/><circle cx="275.5" cy="23.5" r="4.5" transform="rotate(0,275.5,23.5)"/><circle cx="275.5" cy="32.5" r="4.5" transform="rotate(0,275.5,32.5)"/><circle cx="275.5" cy="41.5" r="4.5" transform="rotate(0,275.5,41.5)"/></g><g class="corners-square-color-0-1"><path clip-rule="evenodd" d="M 1 244v 45a 9 9, 0, 0, 0, 9 9h 45a 9 9, 0, 0, 0, 9 -9v -45a 9 9, 0, 0, 0, -9 -9h -45a 9 9, 0, 0, 0, -9 9zM 14.5 244h 36a 4.5 4.5, 0, 0, 1, 4.5 4.5v 36a 4.5 4.5, 0, 0, 1, -4.5 4.5h -36a 4.5 4.5, 0, 0, 1, -4.5 -4.5v -36a 4.5 4.5, 0, 0, 1, 4.5 -4.5z" transform="rotate(-90,32.5,266.5)"/></g><g class="corners-dot-color-0-1"><circle cx="23.5" cy="257.5" r="4.5" transform="rotate(0,23.5,257.5)"/><circle cx="23.5" cy="266.5" r="4.5" transform="rotate(0,23.5,266.5)"/><circle cx="23.5" cy="275.5" r="4.5" transform="rotate(0,23.5,275.5)"/><circle cx="32.5" cy="257.5" r="4.5" transform="rotate(0,32.5,257.5)"/><circle cx="32.5" cy="266.5" r="4.5" transform="rotate(0,32.5,266.5)"/><circle cx="32.5" cy="275.5" r="4.5" transform="rotate(0,32.5,275.5)"/><circle cx="41.5" cy="257.5" r="4.5" transform="rotate(0,41.5,257.5)"/><circle cx="41.5" cy="266.5" r="4.5" transform="rotate(0,41.5,266.5)"/><circle cx="41.5" cy="275.5" r="4.5" transform="rotate(0,41.5,275.5)"/></g><svg id="whatsAppLogotype" xmlns="http://www.w3.org/2000/svg" version="1.1" x="111" y="111" viewBox="0 0 50 50" width="77px" height="77px"><rect width="50" height="50" fill="url(#asnap)" rx="15"/><path fill="#fff" d="M35.652 14.217A14.235 14.235 0 0 0 25.49 10c-7.917 0-14.366 6.449-14.373 14.366 0 2.535.662 5.002 1.915 7.186L11 39l7.62-1.998a14.38 14.38 0 0 0 6.87 1.75h.007c7.916 0 14.365-6.45 14.372-14.373a14.316 14.316 0 0 0-4.217-10.162ZM25.49 36.32c-2.15 0-4.252-.579-6.084-1.668l-.434-.261-4.52 1.185 1.206-4.41-.283-.455a11.892 11.892 0 0 1-1.826-6.352c0-6.573 5.36-11.934 11.948-11.934a11.89 11.89 0 0 1 8.447 3.5 11.883 11.883 0 0 1 3.493 8.447C37.43 30.966 32.07 36.32 25.49 36.32Zm6.552-8.943c-.358-.18-2.122-1.048-2.453-1.172-.33-.117-.572-.179-.806.18-.241.358-.93 1.17-1.137 1.405-.207.241-.42.269-.778.09-.359-.18-1.516-.558-2.887-1.785-1.068-.95-1.785-2.129-1.998-2.487-.207-.358-.021-.552.158-.73.159-.16.358-.42.538-.628.179-.206.24-.358.358-.599.117-.241.062-.448-.028-.627-.09-.18-.806-1.95-1.109-2.666-.29-.703-.586-.607-.806-.614-.207-.013-.448-.013-.69-.013-.24 0-.626.09-.957.447-.33.359-1.254 1.227-1.254 2.998 0 1.77 1.289 3.472 1.468 3.713.179.241 2.528 3.866 6.132 5.423.854.372 1.523.592 2.046.758.861.275 1.64.234 2.26.144.689-.103 2.122-.868 2.425-1.708.297-.841.297-1.558.207-1.71-.09-.15-.33-.24-.689-.42Z"/><defs><linearGradient id="asnap" x1="50" x2="50" y1="50" y2="0" gradientUnits="userSpaceOnUse"><stop stop-color="#20B038"/><stop offset="1" stop-color="#60D66A"/></linearGradient></defs></svg></svg></g></svg><g transform="translate(150,50)"><style>
               .small559{
                  fill:#ffffff;
                  font-size:30px;
                  font-family: Roboto, sans-serif;
                  }</style><text x="0" y="-7" text-anchor="middle" class="small559">WhatsApp</text></g></svg>